<?xml version="1.0" standalone="no"?>
<!DOCTYPE svg PUBLIC "-//W3C//DTD SVG 20010904//EN"
 "http://www.w3.org/TR/2001/REC-SVG-20010904/DTD/svg10.dtd">
<svg version="1.0" xmlns="http://www.w3.org/2000/svg"
 width="81.000000pt" height="87.000000pt" viewBox="0 0 81.000000 87.000000"
 preserveAspectRatio="xMidYMid meet">

<g transform="translate(0.000000,87.000000) scale(0.100000,-0.100000)"
fill="#000000" stroke="none">
<path d="M141 840 c-44 -11 -81 -39 -106 -81 -19 -32 -20 -52 -20 -329 0 -316
2 -327 53 -373 44 -40 87 -46 327 -47 138 0 246 5 270 11 50 14 100 64 114
114 7 25 11 141 11 300 -1 271 -6 312 -47 357 -45 50 -62 53 -323 55 -135 1
-260 -2 -279 -7z m558 -66 c17 -14 35 -42 41 -62 11 -42 14 -361 2 -378 -4 -6
-22 -19 -39 -28 -33 -17 -33 -17 -33 9 0 25 -1 25 -80 25 -78 0 -80 -1 -80
-24 0 -23 5 -25 48 -28 l47 -3 3 -61 c3 -70 -1 -74 -91 -74 -88 0 -133 33
-155 112 -10 36 -9 37 37 66 48 29 91 94 91 138 0 10 4 25 8 31 12 19 79 -3
98 -32 21 -32 74 -36 74 -6 0 44 -88 101 -155 101 -16 0 -24 10 -33 44 -14 56
-65 108 -119 124 -22 7 -81 12 -132 12 l-91 0 0 -45 c0 -40 -4 -47 -32 -65
-18 -11 -36 -20 -40 -20 -5 0 -8 27 -8 61 0 56 3 64 34 95 l34 34 270 0 270 0
31 -26z m-350 -102 c39 -19 67 -54 76 -94 6 -24 2 -29 -33 -47 -49 -25 -82
-69 -98 -130 -11 -45 -12 -46 -53 -49 l-41 -3 0 170 0 171 58 0 c34 0 70 -7
91 -18z m-209 -94 c0 -28 -6 -36 -40 -55 l-40 -21 0 37 c0 29 6 40 28 53 40
26 52 22 52 -14z m0 -108 c0 -23 -7 -35 -32 -50 -44 -27 -48 -26 -48 15 0 27
6 37 28 49 41 23 52 20 52 -14z m281 -23 c-12 -35 -56 -85 -67 -75 -9 9 22 74
47 96 29 28 34 22 20 -21z m-281 -97 l0 -49 71 -3 70 -3 18 -51 c24 -73 44
-99 94 -123 75 -36 277 -23 277 18 0 15 67 58 76 48 2 -2 -1 -19 -6 -38 -12
-43 -46 -76 -91 -89 -45 -13 -454 -13 -501 0 -20 6 -48 24 -62 41 -25 29 -26
37 -26 148 l0 117 33 17 c46 23 47 22 47 -33z m610 -85 c0 -29 -6 -39 -32 -55
-44 -27 -48 -26 -48 15 0 29 6 39 33 55 43 27 47 26 47 -15z"/>
</g>
</svg>
